<mxfile host="app.diagrams.net" agent="Mozilla/5.0 (Windows NT 10.0; Win64; x64) AppleWebKit/537.36 (KHTML, like Gecko) Chrome/130.0.0.0 Safari/537.36 OPR/115.0.0.0" version="26.0.4">
  <diagram name="Page-1" id="IliPSVnwGc1y8CVMQwzB">
    <mxGraphModel dx="1167" dy="618" grid="1" gridSize="10" guides="1" tooltips="1" connect="1" arrows="1" fold="1" page="1" pageScale="1" pageWidth="827" pageHeight="1169" math="0" shadow="0">
      <root>
        <mxCell id="0" />
        <mxCell id="1" parent="0" />
        <mxCell id="2IIRnFB_HFgbn1EbD854-3" value="" style="edgeStyle=orthogonalEdgeStyle;rounded=0;orthogonalLoop=1;jettySize=auto;html=1;" edge="1" parent="1" source="2IIRnFB_HFgbn1EbD854-1" target="2IIRnFB_HFgbn1EbD854-2">
          <mxGeometry relative="1" as="geometry" />
        </mxCell>
        <mxCell id="2IIRnFB_HFgbn1EbD854-12" value="Connection&lt;div&gt;Base de Donnée&lt;/div&gt;" style="edgeLabel;html=1;align=center;verticalAlign=middle;resizable=0;points=[];" vertex="1" connectable="0" parent="2IIRnFB_HFgbn1EbD854-3">
          <mxGeometry x="-0.1583" y="2" relative="1" as="geometry">
            <mxPoint as="offset" />
          </mxGeometry>
        </mxCell>
        <mxCell id="2IIRnFB_HFgbn1EbD854-1" value="DBConnection" style="rounded=1;arcSize=10;whiteSpace=wrap;html=1;align=center;" vertex="1" parent="1">
          <mxGeometry x="80" y="80" width="100" height="40" as="geometry" />
        </mxCell>
        <mxCell id="2IIRnFB_HFgbn1EbD854-5" value="" style="rounded=0;orthogonalLoop=1;jettySize=auto;html=1;" edge="1" parent="1" source="2IIRnFB_HFgbn1EbD854-2" target="2IIRnFB_HFgbn1EbD854-4">
          <mxGeometry relative="1" as="geometry" />
        </mxCell>
        <mxCell id="2IIRnFB_HFgbn1EbD854-17" value="Liste des fichiers&lt;div&gt;DB&lt;/div&gt;" style="edgeLabel;html=1;align=center;verticalAlign=middle;resizable=0;points=[];" vertex="1" connectable="0" parent="2IIRnFB_HFgbn1EbD854-5">
          <mxGeometry x="-0.2325" relative="1" as="geometry">
            <mxPoint as="offset" />
          </mxGeometry>
        </mxCell>
        <mxCell id="2IIRnFB_HFgbn1EbD854-2" value="Table" style="rounded=1;arcSize=10;whiteSpace=wrap;html=1;align=center;" vertex="1" parent="1">
          <mxGeometry x="80" y="200" width="100" height="40" as="geometry" />
        </mxCell>
        <mxCell id="2IIRnFB_HFgbn1EbD854-15" value="" style="edgeStyle=orthogonalEdgeStyle;rounded=0;orthogonalLoop=1;jettySize=auto;html=1;" edge="1" parent="1" source="2IIRnFB_HFgbn1EbD854-4" target="2IIRnFB_HFgbn1EbD854-14">
          <mxGeometry relative="1" as="geometry" />
        </mxCell>
        <mxCell id="2IIRnFB_HFgbn1EbD854-4" value="Checker" style="rhombus;whiteSpace=wrap;html=1;rounded=1;arcSize=10;" vertex="1" parent="1">
          <mxGeometry x="220" y="290" width="80" height="80" as="geometry" />
        </mxCell>
        <mxCell id="2IIRnFB_HFgbn1EbD854-6" value="" style="edgeStyle=orthogonalEdgeStyle;rounded=0;orthogonalLoop=1;jettySize=auto;html=1;entryX=0.5;entryY=0;entryDx=0;entryDy=0;" edge="1" source="2IIRnFB_HFgbn1EbD854-7" target="2IIRnFB_HFgbn1EbD854-9" parent="1">
          <mxGeometry relative="1" as="geometry">
            <mxPoint x="410" y="180" as="targetPoint" />
          </mxGeometry>
        </mxCell>
        <mxCell id="2IIRnFB_HFgbn1EbD854-13" value="FTP&amp;nbsp;&lt;div&gt;Initialisation&lt;/div&gt;" style="edgeLabel;html=1;align=center;verticalAlign=middle;resizable=0;points=[];" vertex="1" connectable="0" parent="2IIRnFB_HFgbn1EbD854-6">
          <mxGeometry x="-0.1583" y="-2" relative="1" as="geometry">
            <mxPoint as="offset" />
          </mxGeometry>
        </mxCell>
        <mxCell id="2IIRnFB_HFgbn1EbD854-7" value="FtpConnection" style="rounded=1;arcSize=10;whiteSpace=wrap;html=1;align=center;" vertex="1" parent="1">
          <mxGeometry x="360" y="80" width="100" height="40" as="geometry" />
        </mxCell>
        <mxCell id="2IIRnFB_HFgbn1EbD854-11" style="rounded=0;orthogonalLoop=1;jettySize=auto;html=1;entryX=1;entryY=0;entryDx=0;entryDy=0;" edge="1" parent="1" source="2IIRnFB_HFgbn1EbD854-9" target="2IIRnFB_HFgbn1EbD854-4">
          <mxGeometry relative="1" as="geometry" />
        </mxCell>
        <mxCell id="2IIRnFB_HFgbn1EbD854-18" value="Liste des fichiers&lt;div&gt;FTP&lt;/div&gt;" style="edgeLabel;html=1;align=center;verticalAlign=middle;resizable=0;points=[];" vertex="1" connectable="0" parent="2IIRnFB_HFgbn1EbD854-11">
          <mxGeometry x="-0.2662" relative="1" as="geometry">
            <mxPoint as="offset" />
          </mxGeometry>
        </mxCell>
        <mxCell id="2IIRnFB_HFgbn1EbD854-9" value="FtpName" style="rounded=1;arcSize=10;whiteSpace=wrap;html=1;align=center;" vertex="1" parent="1">
          <mxGeometry x="360" y="200" width="100" height="40" as="geometry" />
        </mxCell>
        <mxCell id="2IIRnFB_HFgbn1EbD854-14" value="affichage liste&amp;nbsp;&lt;div&gt;des&lt;/div&gt;&lt;div&gt;fichiers non trouvés&amp;nbsp;&lt;/div&gt;" style="shape=process;whiteSpace=wrap;html=1;backgroundOutline=1;rounded=1;arcSize=10;" vertex="1" parent="1">
          <mxGeometry x="140" y="480" width="240" height="60" as="geometry" />
        </mxCell>
        <mxCell id="2IIRnFB_HFgbn1EbD854-16" value="analyse comparatif des deux tableaux" style="label;whiteSpace=wrap;html=1;image=img/clipart/Gear_128x128.png" vertex="1" parent="1">
          <mxGeometry x="124" y="370" width="290" height="20" as="geometry" />
        </mxCell>
      </root>
    </mxGraphModel>
  </diagram>
</mxfile>
